<svg xmlns="http://www.w3.org/2000/svg" width="14.376" height="22.278" viewBox="0 0 14.376 22.278">
  <g id="Group_353" data-name="Group 353" transform="translate(0 0)">
    <g id="Group_352" data-name="Group 352" transform="translate(0)">
      <g id="Group_351" data-name="Group 351">
        <path id="Path_1562" data-name="Path 1562" d="M102.781,250.186l0,0Z" transform="translate(-101.471 -236.196)" fill="#fff"/>
        <path id="Path_1563" data-name="Path 1563" d="M102.754,250.15Z" transform="translate(-101.448 -236.166)" fill="#fff"/>
        <path id="Path_1564" data-name="Path 1564" d="M95.447,30.1l-5.959-8.015h0a1.412,1.412,0,0,1,.4-2.049,1.441,1.441,0,0,1,1.888.4l.646.868a.454.454,0,0,0,.728-.541l-.646-.868a2.326,2.326,0,0,0-4.118.733,2.322,2.322,0,0,0-4.028,1.163,2.3,2.3,0,0,0,.319,1.59A2.326,2.326,0,0,0,82.8,27.111l.71.955A2.326,2.326,0,0,0,81.632,31.8l.835,1.123h0v0h0l.014.019-.01-.014.013.017h0L88.5,41.032a.454.454,0,0,0,.728-.541L82.36,31.257a1.415,1.415,0,0,1,1.252-2.277,1.394,1.394,0,0,1,.991.563l4.128,5.552a.454.454,0,0,0,.728-.541l-5.936-7.984a1.436,1.436,0,0,1,.185-1.94,1.411,1.411,0,0,1,2.057.225l5.6,7.534a.454.454,0,0,0,.728-.541L85.516,23a1.411,1.411,0,0,1,.321-2,1.443,1.443,0,0,1,1.97.346l6.912,9.3a.454.454,0,0,0,.728-.541ZM82.484,32.945Z" transform="translate(-81.16 -18.937)" fill="#fff"/>
      </g>
    </g>
  </g>
</svg>
